{"title":"Roberto Carlos - En Vivo Desde Miami (Xvid)","uid":7617660,"size":758885294,"categoryP":"video","categoryS":"music_videos","magnet":"?xt=urn:btih:0186b71b7bde5ad858c79245b733a05a68360d2e&amp;dn=Roberto+Carlos+-+En+Vivo+Desde+Miami+%28Xvid%29&amp;tr=udp%3A%2F%2Ftracker.openbittorrent.com%3A80&amp;tr=udp%3A%2F%2Fopen.demonii.com%3A1337&amp;tr=udp%3A%2F%2Ftracker.coppersurfer.tk%3A6969&amp;tr=udp%3A%2F%2Fexodus.desync.com%3A6969","seeders":2,"leechers":0,"uploader":"MusicVideos-HQ","files":1,"time":1347246366,"description":"General\n\nFormat                         : AVI\nFormat/Info                    : Audio Video Interleave\nFile size                      : 724 MiB\nDuration                       : 1h 22mn\nOverall bit rate               : 1 222 Kbps\n\nVideo\nID                             : 0\nFormat                         : MPEG-4 Visual\nFormat profile                 : Advanced Simple@L5\nFormat settings, BVOP          : 2\nFormat settings, QPel          : No\nFormat settings, GMC           : No warppoints\nFormat settings, Matrix        : Default (H.263)\nMuxing mode                    : Packed bitstream\nCodec ID                       : XVID\nCodec ID/Hint                  : XviD\nDuration                       : 1h 22mn\nBit rate                       : 1 083 Kbps\nWidth                          : 640 pixels\nHeight                         : 480 pixels\nDisplay aspect ratio           : 4:3\nFrame rate                     : 29.970 fps\nColor space                    : YUV\nChroma subsampling             : 4:2:0\nBit depth                      : 8 bits\nScan type                      : Progressive\nCompression mode               : Lossy\nBits/(Pixel*Frame)             : 0.118\nStream size                    : 641 MiB (89%)\nWriting library                : XviD 64\n\nAudio\nID                             : 1\nFormat                         : MPEG Audio\nFormat version                 : Version 1\nFormat profile                 : Layer 3\nCodec ID                       : 55\nCodec ID/Hint                  : MP3\nDuration                       : 1h 22mn\nBit rate mode                  : Constant\nBit rate                       : 128 Kbps\nChannel(s)                     : 2 channels\nSampling rate                  : 44.1 KHz\nCompression mode               : Lossy\nStream size                    : 75.8 MiB (10%)\nAlignment                      : Split accross interleaves\nInterleave, duration           : 33 ms (1.00 video frame)\nWriting library                : LAMELAME_MAJOR_VERSI","torrent":{"xt":"urn:btih:0186b71b7bde5ad858c79245b733a05a68360d2e","amp;dn":"Roberto+Carlos+-+En+Vivo+Desde+Miami+%28Xvid%29","amp;tr":["udp%3A%2F%2Ftracker.openbittorrent.com%3A80","udp%3A%2F%2Fopen.demonii.com%3A1337","udp%3A%2F%2Ftracker.coppersurfer.tk%3A6969","udp%3A%2F%2Fexodus.desync.com%3A6969"],"infoHash":"0186b71b7bde5ad858c79245b733a05a68360d2e","infoHashBuffer":{"type":"Buffer","data":[1,134,183,27,123,222,90,216,88,199,146,69,183,51,160,90,104,54,13,46]},"announce":[],"urlList":[]}}